<svg xmlns="http://www.w3.org/2000/svg" id="Layer_1" height="512" viewBox="0 0 512 512" width="512"><path d="m197.035 90.382 23.827 19.151-8.02 29.499c-1.157 4.257.401 8.683 3.97 11.276 3.57 2.594 8.26 2.708 11.952.292l25.576-16.743 25.577 16.743c1.771 1.159 3.771 1.735 5.768 1.735 2.166 0 4.326-.678 6.183-2.028 3.569-2.593 5.127-7.019 3.97-11.275l-8.02-29.498 23.827-19.151c3.439-2.764 4.78-7.261 3.417-11.457-1.364-4.196-5.092-7.046-9.498-7.26l-30.533-1.488-10.851-28.578c-1.563-4.119-5.425-6.781-9.839-6.781 0 0 0 0-.001 0-4.414 0-8.276 2.661-9.84 6.78l-10.85 28.578-30.532 1.488c-4.406.214-8.134 3.064-9.498 7.26s-.024 8.693 3.415 11.457zm40.971-4.398c4.18-.203 7.842-2.863 9.329-6.777l7.004-18.448 7.004 18.447c1.485 3.914 5.147 6.575 9.328 6.778l19.711.961-15.38 12.362c-3.264 2.623-4.663 6.928-3.564 10.966l5.177 19.042-16.512-10.809c-3.5-2.291-8.025-2.292-11.528.001l-16.511 10.808 5.176-19.041c1.1-4.042-.3-8.347-3.562-10.966l-15.381-12.363zm-146.914 63.494 30.21 4.672 7.805 29.557c1.126 4.265 4.689 7.318 9.077 7.779.38.04.757.06 1.131.06 3.952 0 7.547-2.186 9.363-5.783l13.778-27.288 30.522 1.711c4.4.25 8.41-2.199 10.204-6.229s.93-8.643-2.2-11.75l-21.694-21.536 11.059-28.499c1.596-4.112.509-8.677-2.769-11.629-3.278-2.951-7.932-3.557-11.856-1.54l-27.186 13.978-23.686-19.322c-3.414-2.786-8.09-3.159-11.913-.952-3.823 2.208-5.837 6.444-5.131 10.791l4.893 30.174-25.698 16.556c-3.709 2.389-5.513 6.721-4.595 11.037.917 4.315 4.327 7.539 8.686 8.213zm33.282-24.294c3.52-2.266 5.362-6.4 4.692-10.534l-3.158-19.479 15.29 12.475c3.242 2.645 7.743 3.119 11.466 1.205l17.55-9.023-7.139 18.396c-1.515 3.903-.575 8.33 2.396 11.279l14.004 13.902-19.705-1.105c-4.182-.222-8.094 2.029-9.982 5.765l-8.895 17.616-5.039-19.082c-1.069-4.046-4.433-7.074-8.567-7.713l-19.502-3.016zm3.83 76.278c-.461-4.387-3.516-7.949-7.78-9.074l-29.556-7.804-4.672-30.21c-.674-4.359-3.898-7.769-8.213-8.686-4.312-.917-8.647.886-11.036 4.595l-16.556 25.697-30.175-4.893c-4.349-.704-8.584 1.31-10.792 5.132-2.207 3.823-1.833 8.499.951 11.911l19.325 23.686-13.977 27.185c-2.018 3.923-1.415 8.577 1.537 11.856s7.517 4.368 11.63 2.771l28.5-11.058 21.537 21.694c2.031 2.046 4.706 3.125 7.44 3.124 1.448 0 2.914-.302 4.309-.923 4.031-1.793 6.476-5.798 6.23-10.205l-1.712-30.521 27.29-13.779c3.936-1.99 6.182-6.11 5.72-10.498zm-110.549-14.58c.001 0 .001 0 0 0l.019.003c-.006-.001-.013-.002-.019-.003zm67.13 26.188c-3.738 1.886-6.002 5.807-5.767 9.986l1.105 19.702-13.905-14.006c-2.014-2.028-4.716-3.109-7.47-3.109-1.279 0-2.569.233-3.806.713l-18.396 7.139 9.021-17.548c1.915-3.723 1.443-8.225-1.204-11.468l-12.475-15.291 19.481 3.159c4.134.669 8.267-1.173 10.531-4.69l10.688-16.589 3.016 19.501c.639 4.136 3.667 7.5 7.714 8.569l19.08 5.038zm244.606-92.397-21.694 21.536c-3.131 3.107-3.995 7.72-2.2 11.75 1.794 4.031 5.808 6.483 10.204 6.229l30.521-1.711 13.778 27.288c1.817 3.597 5.411 5.783 9.363 5.782.375 0 .753-.02 1.133-.06 4.388-.461 7.95-3.516 9.075-7.78l7.804-29.556 30.21-4.671c4.359-.674 7.769-3.898 8.686-8.213.917-4.316-.886-8.648-4.595-11.037l-25.698-16.556 4.892-30.173c.706-4.349-1.308-8.585-5.131-10.792-3.823-2.208-8.5-1.834-11.912.951l-23.687 19.325-27.186-13.977c-3.922-2.018-8.576-1.414-11.855 1.538s-4.367 7.517-2.771 11.63zm55.688-39.736-.001.01c0-.003 0-.006.001-.01zm-39.475 37.288-7.139-18.397 17.547 9.021c3.723 1.916 8.227 1.443 11.469-1.204l15.291-12.475-3.159 19.481c-.669 4.133 1.173 8.267 4.69 10.531l16.589 10.688-19.504 3.016c-4.134.641-7.497 3.668-8.566 7.714l-5.038 19.08-8.896-17.617c-1.798-3.558-5.439-5.779-9.391-5.779-.197 0-.395.005-.593.017l-19.703 1.104 14.006-13.904c2.971-2.95 3.911-7.377 2.397-11.276zm76.878 36.15-4.671 30.21-29.556 7.804c-4.265 1.125-7.319 4.688-7.78 9.075-.462 4.387 1.784 8.507 5.723 10.497l27.288 13.778-1.711 30.521c-.247 4.405 2.198 8.41 6.229 10.204 1.396.622 2.861.924 4.31.924 2.734 0 5.409-1.078 7.439-3.124l21.537-21.694 28.497 11.059c4.111 1.597 8.678.511 11.631-2.769 2.953-3.279 3.557-7.933 1.539-11.855l-13.978-27.187 19.325-23.686c2.785-3.414 3.158-8.09.95-11.913-2.208-3.822-6.442-5.83-10.791-5.131l-30.175 4.893-16.555-25.698c-2.389-3.708-6.72-5.511-11.037-4.595-4.316.917-7.54 4.327-8.214 8.687zm10.593 36.197 3.016-19.502 10.686 16.587c2.267 3.521 6.401 5.362 10.534 4.692l19.479-3.158-12.475 15.291c-2.646 3.242-3.119 7.743-1.205 11.466l9.023 17.55-18.396-7.138c-3.904-1.516-8.332-.574-11.279 2.396l-13.902 14.004 1.104-19.701c.235-4.18-2.028-8.1-5.764-9.986l-17.616-8.895 19.082-5.039c4.045-1.069 7.072-4.431 7.713-8.567zm-18.08 108.591c-28.424 0-53.778 13.393-70.085 34.199-15.115-15.394-33.717-26.538-54.056-32.632 19.004-12.109 31.647-33.354 31.647-57.511 0-37.584-30.577-68.161-68.161-68.161s-68.161 30.577-68.161 68.161c0 24.157 12.643 45.404 31.649 57.512-17.896 5.365-34.517 14.659-48.631 27.422-23.199 20.979-37.8 49.59-41.115 80.561-.242 2.257.487 4.51 2.004 6.199 1.517 1.688 3.68 2.652 5.95 2.652l194.943-.001c12.168 34.679 45.232 59.615 84.015 59.615 49.08 0 89.009-39.929 89.009-89.009s-39.928-89.007-89.008-89.007zm-212.816-55.943c0-28.762 23.399-52.161 52.161-52.161s52.161 23.399 52.161 52.161-23.399 52.161-52.161 52.161-52.161-23.399-52.161-52.161zm-56.884 158.347c9.791-52 55.19-90.186 109.044-90.186 31.184 0 60.639 12.995 81.652 35.826-6.388 12.27-10.005 26.202-10.005 40.965 0 4.552.345 9.024 1.007 13.394zm269.7 59.614c-40.257 0-73.009-32.751-73.009-73.009s32.751-73.009 73.009-73.009 73.009 32.751 73.009 73.009-32.751 73.009-73.009 73.009zm51.358-111.372c-3.775-3.754-8.779-5.818-14.102-5.818-.026 0-.053 0-.079 0-5.343.021-10.354 2.121-14.111 5.915l-33.734 34.07-12.415-12.416c-3.78-3.78-8.806-5.862-14.153-5.862s-10.374 2.082-14.154 5.862c-7.803 7.804-7.803 20.502 0 28.306l26.624 26.623c3.902 3.902 9.027 5.853 14.153 5.853s10.251-1.951 14.153-5.853c10.09-10.09 20.266-20.411 30.107-30.393 5.93-6.015 11.86-12.029 17.805-18.029 7.75-7.823 7.708-20.499-.094-28.258zm-11.272 16.996c-5.955 6.009-11.894 12.034-17.833 18.058-9.821 9.961-19.977 20.262-30.027 30.312-1.565 1.565-4.113 1.565-5.679 0l-26.624-26.623c-1.565-1.565-1.565-4.113 0-5.679 1.023-1.022 2.218-1.175 2.84-1.175s1.816.153 2.839 1.175l18.101 18.101c1.5 1.5 3.535 2.343 5.657 2.343h.02c2.128-.005 4.167-.859 5.665-2.371l39.391-39.783c1.005-1.015 2.188-1.17 2.803-1.172.647.029 1.813.146 2.837 1.164 1.557 1.549 1.562 4.084.01 5.65z"></path></svg>